{"title":"The.Jungle.2013.DVDRiP.x264.AC3 - BiTo","uid":8724659,"size":1153651710,"categoryP":"video","categoryS":"movies","magnet":"?xt=urn:btih:5e4a1ab949261be426d5b60a76f01cdae8c02a7f&amp;dn=The.Jungle.2013.DVDRiP.x264.AC3+-+BiTo&amp;tr=udp%3A%2F%2Ftracker.openbittorrent.com%3A80&amp;tr=udp%3A%2F%2Fopen.demonii.com%3A1337&amp;tr=udp%3A%2F%2Ftracker.coppersurfer.tk%3A6969&amp;tr=udp%3A%2F%2Fexodus.desync.com%3A6969","seeders":0,"leechers":1,"uploader":"R0thschild","files":3,"time":1374491466,"description":"              ***********************************************\n\n                PublicHash - Largest Bittorrent Community\n      \n                       &lt;a href=&quot; http://publichash.com/&quot; rel=&quot;nofollow&quot; target=&quot;_NEW&quot;&gt; http://publichash.com/&lt;/a&gt;\n\n          Crystal Clean files - Fast Speed! No Virus! No Fake! Enjoy!\n    \n              ***********************************************\nThe Jungle (2013)\nThriller  -  2013 (Australia)\nNot yet released\n(voting begins after release)\n\nBig cat conservationist LARRY BLACK and his filmmaker brother BEN travel into the Indonesian jungle to find and document the rare and endangered Javan Leopard. As they travel deeper and deeper into the jungle they realise they are being stalked by a deadly predator.\n\nDirector: Andrew Traucki\nWriter: Andrew Traucki \n &lt;a href=&quot;\nhttp://imgsure.com/?p=948992&quot; rel=&quot;nofollow&quot; target=&quot;_NEW&quot;&gt;\nhttp://imgsure.com/?p=948992&lt;/a&gt; &lt;a href=&quot;\nhttp://imgsure.com/?p=690544&quot; rel=&quot;nofollow&quot; target=&quot;_NEW&quot;&gt;\nhttp://imgsure.com/?p=690544&lt;/a&gt;\n\nSource: DVDR\nSample: Yes\nCodec: x264\nContainer: MKV\nAudio: 6CH @ English\n\nVideo\nID                                       : 1\nFormat                                   : AVC\nFormat/Info                              : Advanced Video Codec\nFormat profile                           : &lt;a class=&quot;__cf_email__&quot; href=&quot;/cdn-cgi/l/email-protection&quot; data-cfemail=&quot;d39bbab4bb939fe7fde2&quot;&gt;[email&amp;#160;protected]&lt;/a&gt;&lt;script cf-hash='f9e31' type=&quot;text/javascript&quot;&gt;\n/* &lt;![CDATA[ */!function(){try{var t=&quot;currentScript&quot;in document?document.currentScript:function(){for(var t=document.getElementsByTagName(&quot;script&quot;),e=t.length;e--;)if(t[e].getAttribute(&quot;cf-hash&quot;))return t[e]}();if(t&amp;&amp;t.previousSibling){var e,r,n,i,c=t.previousSibling,a=c.getAttribute(&quot;data-cfemail&quot;);if(a){for(e=&quot;&quot;,r=parseInt(a.substr(0,2),16),n=2;a.length-n;n+=2)i=parseInt(a.substr(n,2),16)^r,e+=String.fromCharCode(i);e=document.createTextNode(e),c.parentNode.replaceChild(e,c)}}}catch(u){}}();/* ]]&gt; */&lt;/script&gt;\nFormat settings, CABAC                   : Yes\nFormat settings, ReFrames                : 3 frames\nCodec ID                                 : V_MPEG4/ISO/AVC\nDuration                                 : 1h 24mn\nBit rate mode                            : Variable\nBit rate                                 : 1 396 Kbps\nMaximum bit rate                         : 40.0 Mbps\nWidth                                    : 720 pixels\nHeight                                   : 400 pixels\nDisplay aspect ratio                     : 16:9\nFrame rate mode                          : Constant\nFrame rate                               : 23.976 fps\nColor space                              : YUV\nChroma subsampling                       : 4:2:0\nBit depth                                : 8 bits\nScan type                                : Progressive\nBits/(Pixel*Frame)                       : 0.202\nStream size                              : 824 MiB (76%)\nWriting library                          : x264 core 133 r2334 a3ac64b\n\nAudio\nID                                       : 2\nFormat                                   : AC-3\nFormat/Info                              : Audio Coding 3\nMode extension                           : CM (complete main)\nFormat settings, Endianness              : Big\nCodec ID                                 : A_AC3\nDuration                                 : 1h 24mn\nBit rate mode                            : Constant\nBit rate                                 : 384 Kbps\nChannel(s)                               : 6 channels\nChannel positions                        : Front: L C R, Side: L R, LFE\nSampling rate                            : 48.0 KHz\nBit depth                                : 16 bits\nCompression mode                         : Lossy\nStream size                              : 232 MiB (22%)\nDefault                                  : Yes\nForced                                   : No\n\nIMDB: http://www.imdb.com/title/tt2444092/","torrent":{"xt":"urn:btih:5e4a1ab949261be426d5b60a76f01cdae8c02a7f","amp;dn":"The.Jungle.2013.DVDRiP.x264.AC3+-+BiTo","amp;tr":["udp%3A%2F%2Ftracker.openbittorrent.com%3A80","udp%3A%2F%2Fopen.demonii.com%3A1337","udp%3A%2F%2Ftracker.coppersurfer.tk%3A6969","udp%3A%2F%2Fexodus.desync.com%3A6969"],"infoHash":"5e4a1ab949261be426d5b60a76f01cdae8c02a7f","infoHashBuffer":{"type":"Buffer","data":[94,74,26,185,73,38,27,228,38,213,182,10,118,240,28,218,232,192,42,127]},"announce":[],"urlList":[]}}